<?xml version="1.0" encoding="UTF-8"?> <svg xmlns="http://www.w3.org/2000/svg" xmlns:xlink="http://www.w3.org/1999/xlink" version="1.1" id="Layer_1" x="0px" y="0px" viewBox="0 0 216 198.9" style="enable-background:new 0 0 216 198.9;" xml:space="preserve"> <style type="text/css"> .st0{fill:#FDC30B;} </style> <g> <path class="st0" d="M127.7,164.5h-6.9v-12.4c0-0.7-0.3-1.5-0.8-2s-1.3-0.8-2-0.8H38.6c-0.7,0-1.5,0.3-2,0.8s-0.8,1.3-0.8,2v12.4 h-6.9c-0.7,0-1.5,0.3-2,0.8c-0.5,0.5-0.8,1.3-0.8,2v16.4c0,0.7,0.3,1.5,0.8,2c0.5,0.5,1.3,0.8,2,0.8h12.9c1.6,0,2.8-1.3,2.8-2.8 c0-1.6-1.3-2.8-2.8-2.8h-10v-10.7h6.9c0,0,0,0,0,0h79.3c0,0,0,0,0,0h6.9v10.7l-71.5,0c-1.6,0-2.8,1.3-2.8,2.8 c0,1.6,1.3,2.8,2.8,2.8l74.4,0c0.7,0,1.5-0.3,2-0.8c0.5-0.5,0.8-1.3,0.8-2v-16.4c0-0.7-0.3-1.5-0.8-2S128.4,164.5,127.7,164.5z M41.5,155h73.6l0,9.5H41.5V155z"></path> <path class="st0" d="M207.3,159.5l-0.6-0.7c-1.8-2-4.4-3-6.9-3c-1.4,0-2.7,0.3-4,0.9l-78.6-78.6c0-0.9,0-2.3-0.1-3.6 c-0.1-0.8-0.2-1.7-0.3-2.4c0-0.2-0.1-0.5-0.2-0.7c0.1-0.1,0.2-0.3,0.3-0.4c0.8-1,2.1-2.3,3.6-3.8c2.2-2.2,4.8-4.6,6.8-6.4 c0.5-0.5,1-0.9,1.4-1.3c1.4,1.3,3.2,2,5,2c1.9,0,3.8-0.7,5.2-2.2l5.4-5.4l-2-2l2,2c1.4-1.4,2.2-3.3,2.2-5.2c0-1.9-0.7-3.8-2.2-5.2 l-27.7-27.7c-1.4-1.4-3.3-2.2-5.2-2.2c-1.9,0-3.8,0.7-5.2,2.2l-5.4,5.4c-1.4,1.4-2.2,3.3-2.2,5.2c0,1.7,0.6,3.5,1.9,4.8L87.8,43.7 c-0.7-0.1-1.7-0.2-2.7-0.2c-0.8,0-1.6,0.1-2.5,0.3c-0.9,0.2-1.9,0.6-2.7,1.4c-0.5,0.5-1.4,1.3-2.4,2.4c-3.1,3.2-7.8,8.1-7.8,8.1 c-0.2,0.2-0.3,0.4-0.4,0.6c-0.1,0.1-0.5,0.8-0.9,1.9c-0.4,1.1-0.8,2.7-0.9,4.4c0,0.1,0,0.3,0,0.4L54.9,75.7 c-1.3-0.9-2.7-1.3-4.2-1.3c-1.9,0-3.8,0.7-5.2,2.2L40,82c-1.4,1.4-2.2,3.3-2.2,5.2c0,1.9,0.7,3.8,2.2,5.2l27.7,27.7 c1.4,1.4,3.3,2.2,5.2,2.2c1.9,0,3.8-0.7,5.2-2.2l5.4-5.4l-2-2l2,2c1.4-1.4,2.2-3.3,2.2-5.2c0-1.2-0.3-2.4-0.9-3.4l13.9-13.4 c0.9,0.2,2,0.3,3.2,0.4c0.4,0,0.9,0,1.4-0.1l77.6,77.6c-0.8,1.4-1.2,3.1-1.2,4.7c0,2.3,0.8,4.6,2.5,6.4l0,0l0.6,0.7 c1.8,2,4.4,3,6.9,3c2.3,0,4.6-0.8,6.4-2.5l10.7-9.9c2-1.8,3-4.4,3-6.9C209.8,163.6,209,161.3,207.3,159.5z M119.2,60.5 c-2,1.9-3.9,3.8-5.4,5.4c-0.3,0.3-0.5,0.6-0.8,0.8l-20.2-20l11.7-11.5l20.2,20.2C123.2,56.8,121.2,58.6,119.2,60.5z M104.8,25.1 l5.4-5.4c0.3-0.3,0.7-0.5,1.2-0.5c0.4,0,0.9,0.2,1.2,0.5l27.7,27.7c0.3,0.3,0.5,0.7,0.5,1.2c0,0.4-0.2,0.9-0.5,1.2l-5.4,5.4 c-0.3,0.3-0.7,0.5-1.2,0.5c-0.4,0-0.9-0.2-1.2-0.5l-1.3-1.3c-0.1-0.2-0.2-0.3-0.4-0.5l-24-24.6c-0.4-0.4-0.9-0.7-1.5-0.8l-0.6-0.6 c-0.3-0.3-0.5-0.7-0.5-1.2C104.4,25.9,104.5,25.5,104.8,25.1z M79.9,53.2c0.9-0.9,1.7-1.7,2.4-2.4c0.6-0.7,1.2-1.2,1.5-1.4l0.1,0 c0.2-0.1,0.8-0.2,1.4-0.2c0.7,0,1.5,0.1,2.1,0.2c0.1,0,0.1,0,0.2,0l23.7,23.5c0,0.2,0.1,0.5,0.1,0.8c0.2,1.3,0.2,3.2,0.2,4.4 l-0.7,0.7c-0.3,0.3-0.7,0.7-1.2,1.2l-0.5,0.5c-2.5,2.5-5.7,5.7-6.8,6.8c-0.1,0-0.2,0-0.4,0c-0.6,0-1.5-0.1-2.2-0.3 c-0.1,0-0.3-0.1-0.4-0.1L87.7,74.7c-1.1-1.1-2.9-1.2-4-0.1c-1.1,1.1-1.2,2.9-0.1,4l10.3,10.8l-12.8,12.3L59,79.6L70.5,68l5.8,5.5 c1.1,1.1,2.9,1,4-0.1c1.1-1.1,1-2.9-0.1-4l-7-6.7c0,0,0-0.1,0-0.1c0-0.8,0.2-1.8,0.5-2.5c0.1-0.3,0.3-0.6,0.3-0.8 c0.2-0.2,0.6-0.6,1-1.1C76.3,56.9,78.2,55,79.9,53.2z M74.1,116.1c-0.3,0.3-0.7,0.5-1.2,0.5c-0.4,0-0.9-0.2-1.2-0.5L44,88.4 c-0.3-0.3-0.5-0.7-0.5-1.2c0-0.4,0.2-0.9,0.5-1.2l5.4-5.4c0.3-0.3,0.7-0.5,1.2-0.5c0.2,0,0.4,0,0.6,0.1c0,0.1,0,0.3,0,0.4 c0,0.8,0.3,1.5,0.9,2L78.8,108c0.3,0.3,0.6,0.5,1,0.6c0.1,0.2,0.2,0.5,0.2,0.8c0,0.4-0.2,0.9-0.5,1.2L74.1,116.1z M108.2,89.4 c1.8-1.8,4.3-4.3,6.1-6.1l76.4,76.4l-6.2,6.2l-76.4-76.4L108.2,89.4z M202.9,168.6l-10.7,9.9c-0.7,0.7-1.6,1-2.5,1 c-1,0-2-0.4-2.7-1.2l-0.6-0.7l-2.1,1.9l2.1-1.9c-0.7-0.7-1-1.6-1-2.5c0-1,0.4-2,1.2-2.7l10.7-9.9c0.7-0.7,1.6-1,2.5-1 c1,0,2,0.4,2.7,1.2l0.6,0.7c0.7,0.7,1,1.6,1,2.5C204.1,166.9,203.7,167.9,202.9,168.6z"></path> <path class="st0" d="M45.4,64.5c0.2,1.6,1.7,2.6,3.2,2.4c1.6-0.2,2.6-1.7,2.4-3.2l-2.4-15.4c-0.2-1.6-1.7-2.6-3.2-2.4 c-1.6,0.2-2.6,1.7-2.4,3.2L45.4,64.5z"></path> <path class="st0" d="M30.8,86.4c0.2-1.6-0.9-3-2.5-3.2l-15.5-1.9c-1.6-0.2-3,0.9-3.2,2.5c-0.2,1.6,0.9,3,2.5,3.2l15.5,1.9 C29.2,89,30.6,87.9,30.8,86.4z"></path> <path class="st0" d="M31.3,73.5c1.2,1.1,3,1,4-0.2c1.1-1.2,1-3-0.2-4L23.7,58.8c-1.2-1.1-3-1-4,0.2c-1.1,1.2-1,3,0.2,4L31.3,73.5z"></path> </g> </svg> 