<?xml version="1.0" encoding="UTF-8"?> <svg xmlns="http://www.w3.org/2000/svg" xmlns:xlink="http://www.w3.org/1999/xlink" version="1.1" id="Layer_1" x="0px" y="0px" viewBox="0 0 216 198.9" style="enable-background:new 0 0 216 198.9;" xml:space="preserve"> <style type="text/css"> .st0{fill:#FDC30B;} .st1{fill:#FAFAFA;} </style> <path class="st0" d="M163.5,184.6v-2.9H29.3c-1.5,0-2.8-0.6-3.7-1.5c-1-1-1.5-2.3-1.5-3.7V24c0-1.5,0.6-2.8,1.5-3.7 c1-1,2.3-1.5,3.7-1.5h134.1c1.5,0,2.8,0.6,3.7,1.5c1,1,1.5,2.3,1.5,3.7v152.5c0,1.5-0.6,2.8-1.5,3.7c-1,1-2.3,1.5-3.7,1.5V184.6v2.9 c6.2,0,11.1-5,11.1-11.1V24c0-6.2-5-11.1-11.1-11.1H29.3c-6.2,0-11.1,5-11.1,11.1v152.5c0,6.2,5,11.1,11.1,11.1h134.1V184.6z"></path> <path class="st0" d="M36.9,103.1h117.7c1.6,0,2.9-1.3,2.9-2.9c0-1.6-1.3-2.9-2.9-2.9H36.9c-1.6,0-2.9,1.3-2.9,2.9 C34,101.8,35.3,103.1,36.9,103.1"></path> <path class="st0" d="M36.9,125.3h87.7c1.6,0,2.9-1.3,2.9-2.9c0-1.6-1.3-2.9-2.9-2.9H36.9c-1.6,0-2.9,1.3-2.9,2.9 C34,124,35.3,125.3,36.9,125.3"></path> <path class="st0" d="M36.9,147.5h80.8c1.6,0,2.9-1.3,2.9-2.9c0-1.6-1.3-2.9-2.9-2.9H36.9c-1.6,0-2.9,1.3-2.9,2.9 C34,146.2,35.3,147.5,36.9,147.5"></path> <path class="st0" d="M36.9,167.5h91.8c1.6,0,2.9-1.3,2.9-2.9c0-1.6-1.3-2.9-2.9-2.9H36.9c-1.6,0-2.9,1.3-2.9,2.9 C34,166.2,35.3,167.5,36.9,167.5"></path> <path class="st0" d="M99.7,38.5h54.9c1.6,0,2.9-1.3,2.9-2.9c0-1.6-1.3-2.9-2.9-2.9H99.7c-1.6,0-2.9,1.3-2.9,2.9 C96.7,37.2,98,38.5,99.7,38.5"></path> <path class="st0" d="M99.7,61.6h54.9c1.6,0,2.9-1.3,2.9-2.9c0-1.6-1.3-2.9-2.9-2.9H99.7c-1.6,0-2.9,1.3-2.9,2.9 C96.7,60.3,98,61.6,99.7,61.6"></path> <path class="st0" d="M99.7,81.8h54.9c1.6,0,2.9-1.3,2.9-2.9c0-1.6-1.3-2.9-2.9-2.9H99.7c-1.6,0-2.9,1.3-2.9,2.9 C96.7,80.5,98,81.8,99.7,81.8"></path> <ellipse transform="matrix(0.3827 -0.9239 0.9239 0.3827 -31.4445 236.1993)" class="st1" cx="161" cy="141.6" rx="30" ry="30"></ellipse> <path class="st0" d="M191,141.6h-2.9c0,7.5-3,14.2-7.9,19.1c-4.9,4.9-11.7,7.9-19.1,7.9c-7.5,0-14.2-3-19.1-7.9 c-4.9-4.9-7.9-11.7-7.9-19.1c0-7.5,3-14.2,7.9-19.1c4.9-4.9,11.7-7.9,19.1-7.9c7.5,0,14.2,3,19.1,7.9c4.9,4.9,7.9,11.7,7.9,19.1H191 h2.9c0-18.2-14.7-32.9-32.9-32.9c-18.2,0-32.9,14.7-32.9,32.9c0,18.2,14.7,32.9,32.9,32.9c18.2,0,32.9-14.7,32.9-32.9H191z"></path> <path class="st0" d="M73.8,46.5h-2.9c0,2.7-1.1,5.1-2.9,6.9c-1.8,1.8-4.2,2.9-6.9,2.9c-2.7,0-5.1-1.1-6.9-2.9 c-1.8-1.8-2.9-4.2-2.9-6.9c0-2.7,1.1-5.1,2.9-6.9c1.8-1.8,4.2-2.9,6.9-2.9c2.7,0,5.1,1.1,6.9,2.9c1.8,1.8,2.9,4.2,2.9,6.9H73.8h2.9 c0-8.6-7-15.7-15.7-15.7c-8.6,0-15.7,7-15.7,15.7c0,8.6,7,15.7,15.7,15.7c8.6,0,15.7-7,15.7-15.7H73.8z"></path> <path class="st0" d="M87.2,82.3c0-14.5-11.7-26.2-26.2-26.2c-14.5,0-26.2,11.7-26.2,26.2c0,1.6,1.3,2.9,2.9,2.9 c1.6,0,2.9-1.3,2.9-2.9c0-5.6,2.3-10.7,6-14.4c3.7-3.7,8.8-6,14.4-6c5.6,0,10.7,2.3,14.4,6c3.7,3.7,6,8.8,6,14.4 c0,1.6,1.3,2.9,2.9,2.9C85.9,85.3,87.2,84,87.2,82.3L87.2,82.3z"></path> <path class="st0" d="M144.1,142.7l8.1,10.4c0.5,0.7,1.3,1.1,2.1,1.1c0.8,0.1,1.6-0.2,2.2-0.8l20.5-19.9c1.2-1.1,1.2-3,0.1-4.1 c-1.1-1.2-3-1.2-4.1-0.1l-18.2,17.7l-6.1-7.8c-1-1.3-2.8-1.5-4.1-0.5C143.4,139.6,143.2,141.4,144.1,142.7L144.1,142.7z"></path> </svg> 